<svg xmlns="http://www.w3.org/2000/svg" viewBox="0 0 435 531">
  <style>
    path { fill: #000; }
    @media (prefers-color-scheme: dark) {
      path { fill: #fff; }
    }
  </style>
  <path d="M199.998 39.7607C199.998 39.7607 314.912 79.2228 258.314 189.134C257.978 189.806 258.165 193.988 258.165 195.518C258.239 204.516 257.791 213.364 257.306 222.212C282.059 173.641 321.446 163.598 349.82 163.598C369.831 163.598 384.354 168.6 384.354 168.6C384.354 168.6 381.292 271.082 285.12 271.082C275.152 271.082 264.213 270 252.154 267.573C248.01 293.184 241.775 317.414 233.487 339.926C263.728 306.512 294.752 296.32 321.409 296.32C362.961 296.32 393.762 321.147 393.762 321.147C393.762 321.147 363.559 396.375 293.781 396.375C272.688 396.375 248.01 389.506 219.449 371.623C181.667 447.934 119.506 496.99 47.6009 497.102H47.5262C41.1048 497.102 36.0273 492.062 36.0273 485.753C36.0273 479.443 41.1048 474.291 47.5635 474.291C107.41 474.217 159.864 434.531 193.988 371.735C181.145 376.738 164.494 381.292 146.499 381.292C110.845 381.292 69.964 363.335 43.3075 295.125C70.188 284.075 93.223 279.594 112.898 279.594C167.592 279.594 196.34 314.128 209.668 337.686C218.628 314.912 225.423 290.011 229.679 263.466C218.815 265.184 208.809 265.93 199.55 265.93C98.0018 265.93 90.2363 171.923 90.2363 171.923C90.2363 171.923 111.218 163.486 137.539 163.486C171.699 163.486 214.82 177.747 232.404 243.343C234.122 227.812 235.279 211.871 235.204 195.556C235.204 194.921 235.018 193.428 234.756 193.241C136.979 124.546 199.961 39.7981 199.961 39.7981M187.641 0.037334L173.006 19.7497C169.496 24.4538 139.107 67.3132 148.029 122.568C148.44 125.181 148.963 127.794 149.523 130.37C145.603 130.072 141.608 129.922 137.539 129.922C105.655 129.922 80.4548 139.704 77.6921 140.787L54.6943 150.045L56.7477 174.723C57.009 177.971 59.8838 207.166 78.2894 236.698C80.6041 240.431 83.2175 244.239 86.1669 248.047C68.3959 250.773 49.7663 256.074 30.5392 263.989L0 276.533L12.0216 307.296C26.6192 344.668 46.7422 372.818 71.8307 390.962C86.4656 401.527 102.482 408.621 119.73 412.168C97.7405 430.611 72.988 440.616 47.4889 440.653C22.6618 440.653 2.38938 460.851 2.38938 485.716C2.38938 510.58 22.6244 530.666 47.4889 530.666C89.5643 530.591 130.632 516.479 166.36 489.822C191.449 471.118 213.999 446.104 232.703 416.498C253.573 425.421 273.994 429.939 293.744 429.939C385.212 429.939 423.33 337.574 424.899 333.617L434.157 310.544L414.818 294.939C412.28 292.885 396.898 280.976 373.228 272.202C384.242 261.973 393.538 249.466 400.855 234.831C416.498 203.508 417.805 172.969 417.917 169.608L418.664 144.893L395.255 136.829C393.239 136.12 374.722 129.997 349.782 129.997C334.849 129.997 320.737 132.125 307.558 136.232C308.118 119.581 305.318 103.565 299.158 88.2576C276.533 31.9206 217.508 10.2669 210.863 7.98948L187.641 0V0.037334Z"/>
</svg>
